PathFileType	4	(X/Y/Z)	Patient4_TMGait_0pt8_01_right_08.trc.trc
DataRate	CameraRate	NumFrames	NumMarkers	Units	OrigDataRate	OrigDataStartFrame	OrigNumFrames
90.322580645161	90.322580645161	4	33	mm	90.322580645161	106	       141
Frame#	Time	Sacral			L.Shoulder			Chest			R.Shoulder			Neck			R.ASIS			L.ASIS			R.Thigh.Superior			R.Thigh.Lateral			R.Thigh.Inferior			R.Patella			L.Thigh.Superior			L.Thigh.Lateral			L.Thigh.Inferior			L.Patella			L.Shank.Superior			L.Shank.Lateral			L.Shank.Inferior			R.Shank.Superior			R.Shank.Lateral			R.Shank.Inferior			R.Heel			R.Midfoot.Superior			R.Midfoot.Lateral			R.Toe			L.Heel			L.Midfoot.Lateral			L.Midfoot.Superior			L.Toe			L.Elbow			L.Wrist			R.Elbow			R.Wrist			
		X1	Y1	Z1	X2	Y2	Z2	X3	Y3	Z3	X4	Y4	Z4	X5	Y5	Z5	X6	Y6	Z6	X7	Y7	Z7	X8	Y8	Z8	X9	Y9	Z9	X10	Y10	Z10	X11	Y11	Z11	X12	Y12	Z12	X13	Y13	Z13	X14	Y14	Z14	X15	Y15	Z15	X16	Y16	Z16	X17	Y17	Z17	X18	Y18	Z18	X19	Y19	Z19	X20	Y20	Z20	X21	Y21	Z21	X22	Y22	Z22	X23	Y23	Z23	X24	Y24	Z24	X25	Y25	Z25	X26	Y26	Z26	X27	Y27	Z27	X28	Y28	Z28	X29	Y29	Z29	X30	Y30	Z30	X31	Y31	Z31	X32	Y32	Z32	X33	Y33	Z33	

106	9.902500000000	846.521024598783	1010.131165173861	434.448929200042	1050.918585489880	1441.253491382473	270.224599196712	1138.488457992200	1363.163108798695	436.395426002494	1044.328681237455	1434.062749888957	606.435222203844	1028.290162617883	1498.028467549587	428.486676417362	1071.564580912900	949.140473355882	559.060268842550	1064.603055240657	965.992667731098	283.728433291794	1165.100643665778	796.535296828378	528.784828113821	1141.195244105835	672.929193097111	606.994651304447	1234.670082456353	642.675661202186	528.432688121204	1267.783894556197	533.305582650966	553.449453645234	1099.027871506166	748.380301390928	311.075223445826	999.359792141437	639.062708159598	251.396004176461	1076.920965640134	554.864481657206	313.582681690284	1071.345596980608	487.195729988986	324.615958905183	1044.342285964479	416.819525088491	316.781583261886	951.129491206140	304.041900810511	270.440839926612	1001.813000907117	192.797233841581	340.772897100006	1202.682023314472	448.956006969825	558.629610780450	1088.071299988941	389.990398144696	616.141548119587	1092.728130959553	280.381512001392	566.466532520816	905.694171113422	184.982433718963	533.088669584627	1081.385413224649	159.531632769068	581.018847490859	972.153961243799	137.063010863230	608.873279777661	1163.571848738849	59.318018797387	608.331595579651	873.270583707313	38.544896721250	392.457008311418	940.676476647215	35.461121154846	305.869671355442	1025.517453797911	96.572551978428	327.143265811601	1151.374476986011	46.314805269786	288.202314852212	1083.934044543418	1105.694107771015	117.612450246785	1247.506361814936	901.091131279658	123.384486188309	958.774877114857	1090.878382471454	703.443749463070	1122.332202571697	890.548308936822	689.577754774378	
107	9.913571428571	845.722044912613	1010.091559570826	433.766904312081	1052.079530767397	1441.273699853777	270.672541196862	1138.422197506055	1362.827522879665	437.302133639595	1043.292479146305	1433.551769864528	606.776309363134	1028.433954173524	1497.859640022654	428.814161022802	1070.083403216703	949.315971147734	559.718135869691	1064.494899865646	965.740292693793	284.360010190198	1164.697899381194	798.725511937440	529.028866385582	1142.891893275330	675.036675899528	607.657637948566	1236.012404327562	645.546434614023	528.639975795898	1271.418057537204	537.962679923201	554.251978742696	1096.232169370227	747.154449917951	312.454018003997	995.464030524572	638.938899848747	251.565306321006	1071.238405958946	553.789597399206	314.300109319420	1064.674153205137	486.369940713047	325.256282296096	1037.510546716576	416.274641259854	317.206681127533	943.817020470750	304.016586445360	270.609924721838	993.528470272667	192.486916992755	341.061160125839	1209.991752592549	451.695375554251	560.028505211493	1099.024452857660	387.040756298156	618.297032743543	1109.229568215054	277.632871718454	568.919959093618	927.347215743014	172.598396483633	536.461226919176	1104.310687843269	156.214707845108	584.176835322871	996.347697150551	128.475980066897	612.387933988840	1191.423382263443	60.347152789260	611.873587513741	864.355411276272	38.532236342232	392.459295364259	931.762112064471	35.456872989888	305.893675245518	1016.663015310870	96.524272152357	327.260545121112	1142.498962391352	46.148804053600	288.245458867883	1090.763215186238	1108.180452084457	115.370289679078	1265.120452957032	912.656907813319	122.631569928072	952.622876119246	1090.970113330988	702.507353068276	1097.748809559699	875.776550666842	694.208538310666	
108	9.924642857143	845.042601968962	1009.934307971697	433.232882523813	1053.273225965291	1441.156069655681	271.235639697815	1138.467997624097	1362.342637909261	438.275660595117	1042.452352695306	1432.910296981052	607.221973812603	1028.638765701016	1497.551440869021	429.238264894432	1068.735878603183	949.253500913290	560.405750327489	1064.461064089880	965.390074041613	285.043672977430	1164.095253131236	800.252867336287	529.457458287217	1143.879829343209	676.527370257778	608.458847428696	1236.694558506875	647.595709708146	529.154227491342	1274.102830173662	541.974220034754	555.298296429411	1093.488845171329	745.863697899034	313.764581491291	991.565796264753	638.780539519403	251.754768152971	1065.541319011998	552.699079204495	314.979507912100	1058.024784252586	485.549994537975	325.821459079922	1030.666608576780	415.722728573053	317.602490781270	936.482824174731	303.986260472640	270.773042248734	985.208428603813	192.162244772379	341.357109889826	1216.570717077173	454.015680746379	561.599077679021	1109.740387077950	383.677508579746	620.676313790875	1125.693158311585	274.819480716649	571.547429256362	949.759705210683	160.096942490387	539.997350885328	1127.499718629543	153.097685199047	587.409624783212	1021.173601538740	119.991278792390	616.028510360225	1219.471901065300	62.061603574223	615.461634976078	855.449831313574	38.533752253400	392.460050139867	922.846401171620	35.454450596544	305.921828249332	1007.806754638155	96.479127687783	327.377359652339	1133.620272134048	45.970538622354	288.288886299041	1097.111024918482	1110.545633793095	113.433167358920	1281.843042129444	924.823906136027	122.350255989501	947.029077697578	1090.958287607154	701.759906558199	1072.803118819230	863.074382815770	698.602941020595	
109	9.935714285714	844.513377346973	1009.648333452486	432.853727351170	1054.477861724685	1440.900548684638	271.920527364895	1138.624787699533	1361.709540301664	439.315525485755	1041.819076890147	1432.142467141611	607.782817065514	1028.905209045925	1497.101928948076	429.770238722494	1067.584081528744	948.974734242820	561.131344607169	1064.519651422930	964.943503187416	285.762214018091	1163.316840105476	801.080861914441	530.074138419901	1144.138139855239	677.344149602583	609.418883553530	1236.728610431524	648.778308369899	530.005154711346	1275.834901442016	545.271914574536	556.579295514534	1090.819176015320	744.502263516602	314.965408216202	987.649703014680	638.596722587071	251.969900661006	1059.825031553297	551.599859633948	315.613458786469	1051.388651841635	484.737469381054	326.316537762029	1023.794908693714	415.172456258636	317.971808594120	929.115690058402	303.960383693912	270.932109999361	976.854366828726	191.831770909642	341.657611577684	1222.380851582758	455.890619362485	563.323260251296	1120.164758787631	379.943851395165	623.247744460808	1141.997458082903	272.012680726861	574.299530726612	972.819133636236	147.662632168293	543.630272963915	1150.783570778901	150.292481577433	590.659114993189	1046.478608436578	111.749789869665	619.713426647917	1247.473773766901	64.548828860661	618.985426437927	846.552414322187	38.554912473168	392.460051406304	913.930218492042	35.457270733884	305.953764023221	998.948305522449	96.437381666347	327.491372515484	1124.738106606453	45.782979300645	288.330605505437	1103.008882202726	1112.756618420166	111.812576078295	1297.602352720279	937.513388976997	122.529891623358	941.865098067277	1090.922595718178	701.225605381315	1047.846033973236	852.574831798466	702.711192437034	
